<?xml version="1.0" standalone="no"?>
<!DOCTYPE svg PUBLIC "-//W3C//DTD SVG 20010904//EN"
 "http://www.w3.org/TR/2001/REC-SVG-20010904/DTD/svg10.dtd">
<svg version="1.0" xmlns="http://www.w3.org/2000/svg"
 width="700.000000pt" height="700.000000pt" viewBox="0 0 700.000000 700.000000"
 preserveAspectRatio="xMidYMid meet">
<metadata>
Created by potrace 1.11, written by Peter Selinger 2001-2013
</metadata>
<g transform="translate(0.000000,700.000000) scale(0.100000,-0.100000)"
fill="#000000" stroke="none">
<path d="M3255 6994 c-548 -45 -1048 -198 -1501 -460 -1088 -628 -1754 -1780
-1754 -3034 0 -1175 585 -2264 1565 -2915 464 -308 940 -484 1520 -562 183
-24 647 -24 830 0 231 31 393 66 602 128 756 226 1431 724 1882 1389 537 791
725 1768 520 2710 -170 786 -625 1509 -1261 2007 -492 385 -1076 630 -1698
713 -150 20 -574 34 -705 24z m1243 -2014 c192 -21 383 -89 502 -178 120 -91
239 -275 280 -437 124 -485 -82 -949 -500 -1124 -30 -13 -58 -26 -63 -30 -4
-4 67 -160 159 -347 92 -186 226 -462 300 -611 l133 -273 -282 0 -282 0 -295
590 -295 590 -175 -2 -175 -3 -3 -592 -2 -593 -255 0 -255 0 -2 593 -3 592
-175 3 -175 2 -295 -590 -295 -590 -282 0 -282 0 118 243 c65 133 200 408 300
611 100 203 178 373 174 377 -5 4 -33 17 -63 30 -144 60 -290 176 -369 292
-57 84 -111 204 -138 304 -22 84 -26 119 -26 243 0 265 64 452 217 633 112
134 342 239 581 265 116 13 1803 14 1923 2z"/>
<path d="M2635 4499 c-137 -23 -218 -78 -281 -193 -38 -69 -54 -139 -54 -236
0 -47 6 -108 14 -136 32 -123 116 -223 222 -265 58 -23 67 -24 407 -27 l347
-3 0 435 0 436 -302 -1 c-167 -1 -325 -5 -353 -10z"/>
<path d="M3800 4075 l0 -436 348 3 c338 3 349 4 406 27 148 59 236 209 236
399 0 48 -6 110 -14 138 -35 131 -129 238 -244 276 -63 20 -89 22 -399 26
l-333 4 0 -437z"/>
</g>
</svg>
