<?xml version="1.0" standalone="no"?>
<!DOCTYPE svg PUBLIC "-//W3C//DTD SVG 20010904//EN"
 "http://www.w3.org/TR/2001/REC-SVG-20010904/DTD/svg10.dtd">
<svg version="1.0" xmlns="http://www.w3.org/2000/svg"
 width="672.000000pt" height="672.000000pt" viewBox="0 0 672.000000 672.000000"
 preserveAspectRatio="xMidYMid meet">
<metadata>
Created by potrace 1.11, written by Peter Selinger 2001-2013
</metadata>
<g transform="translate(0.000000,672.000000) scale(0.100000,-0.100000)"
fill="#000000" stroke="none">
<path d="M1897 6014 c-1 -1 -42 -5 -92 -8 -49 -3 -103 -8 -120 -11 -16 -3 -46
-8 -65 -11 -19 -3 -48 -8 -65 -10 -16 -2 -40 -6 -52 -9 -13 -3 -33 -7 -44 -10
-12 -2 -47 -12 -78 -21 -31 -9 -61 -17 -68 -18 -7 -1 -16 -5 -19 -9 -4 -4 -14
-7 -22 -7 -8 0 -28 -6 -45 -14 -29 -13 -65 -27 -77 -31 -14 -4 -67 -28 -80
-36 -8 -5 -26 -14 -40 -20 -92 -39 -261 -167 -337 -255 -23 -27 -52 -60 -64
-74 -84 -96 -204 -316 -254 -465 -26 -77 -29 -89 -40 -136 -2 -11 -7 -29 -10
-39 -6 -18 -12 -56 -20 -115 -2 -16 -4 -30 -5 -30 -6 0 -22 -236 -20 -289 0
-22 3 -43 6 -48 3 -4 0 -8 -6 -8 -6 0 -9 -4 -6 -8 2 -4 7 -41 11 -82 8 -99 30
-232 50 -300 8 -30 18 -65 20 -78 8 -35 61 -165 96 -235 85 -170 180 -302 308
-427 146 -144 321 -255 526 -335 39 -15 73 -29 77 -31 4 -3 -33 -84 -81 -182
-127 -256 -351 -711 -362 -736 -5 -11 -13 -28 -18 -36 -5 -8 -51 -100 -102
-205 -51 -104 -132 -270 -181 -369 -48 -98 -88 -184 -88 -191 0 -8 -4 -15 -8
-17 -4 -1 -32 -52 -61 -113 -30 -60 -76 -155 -104 -210 -27 -55 -53 -110 -58
-122 l-9 -23 506 0 505 0 381 768 c209 422 444 895 522 1052 l141 285 312 0
c171 0 314 -3 318 -7 4 -4 7 -477 7 -1052 l0 -1046 458 0 458 0 0 1018 c1 559
1 1033 1 1052 l1 35 308 -1 c169 -1 312 -2 318 -3 8 -1 283 -535 289 -561 1
-3 173 -350 383 -772 l382 -768 505 0 c278 0 505 2 505 4 0 2 -20 43 -44 92
-24 49 -105 215 -181 369 -76 154 -206 420 -290 590 -84 171 -200 407 -259
526 -58 119 -106 222 -106 228 0 6 -4 11 -10 11 -5 0 -10 4 -10 10 0 5 -40 91
-89 190 -49 99 -86 182 -82 184 3 3 41 18 84 35 266 106 481 262 643 466 21
28 42 52 47 53 4 2 7 8 7 14 0 5 10 24 23 41 12 18 27 41 33 52 6 11 29 52 51
90 57 102 127 287 147 385 3 14 7 36 11 50 11 51 25 147 30 215 7 82 7 76 6
140 0 28 -1 57 0 65 1 29 -10 174 -15 199 -3 15 -8 44 -11 66 -11 85 -39 196
-72 295 -26 75 -110 261 -123 270 -3 3 -9 13 -13 22 -7 20 -99 149 -142 198
-79 92 -161 166 -251 227 -64 44 -263 143 -286 143 -8 0 -18 4 -23 8 -11 10
-185 64 -260 81 -77 17 -142 28 -220 37 -27 3 -63 8 -80 11 -27 4 -3203 11
-3208 7z m1083 -863 c4 -1 4 -1343 1 -1521 l-1 -26 -547 2 c-537 2 -582 4
-673 24 -25 6 -56 13 -70 16 -14 3 -62 23 -108 45 -153 74 -258 204 -322 400
-49 148 -57 368 -20 511 15 58 41 130 53 146 5 6 6 12 3 12 -4 0 2 13 13 29
12 16 21 32 21 35 0 21 93 132 153 183 49 42 192 109 239 114 4 0 22 4 39 9
17 5 64 12 103 16 39 3 72 7 73 8 2 2 1036 -1 1043 -3z m2040 -4 c220 -29 374
-108 480 -247 38 -49 123 -211 115 -218 -3 -3 -1 -10 4 -16 10 -12 13 -22 32
-126 16 -85 13 -278 -6 -357 -3 -13 -7 -33 -10 -44 -26 -122 -103 -259 -195
-350 -90 -88 -228 -147 -410 -175 -74 -12 -1130 -11 -1131 1 0 13 0 1425 0
1490 l1 51 543 -2 c298 -2 558 -5 577 -7z"/>
</g>
</svg>
