<svg width="21" height="17" viewBox="0 0 21 17" fill="none" xmlns="http://www.w3.org/2000/svg">
<path d="M20.628 5.28801C20.628 6.37601 20.332 7.36001 19.74 8.24001C19.164 9.12001 18.324 9.74401 17.22 10.112L20.604 17H17.436L14.172 10.424H12.18V17H9.32401V0.200012H15.132C16.124 0.200012 16.988 0.344012 17.724 0.632012C18.46 0.904013 19.028 1.28801 19.428 1.78401C19.844 2.26401 20.148 2.80001 20.34 3.39201C20.532 3.96801 20.628 4.60001 20.628 5.28801ZM12.18 2.88801V7.73601H15.18C16.076 7.73601 16.716 7.51201 17.1 7.06401C17.5 6.60001 17.7 6.01601 17.7 5.31201C17.7 4.64001 17.508 4.07201 17.124 3.60801C16.74 3.12801 16.092 2.88801 15.18 2.88801H12.18Z" fill="#222222"/>
<path d="M0.872009 5.28801C0.872009 6.37601 1.16801 7.36001 1.76001 8.24001C2.33601 9.12001 3.17601 9.74401 4.28001 10.112L0.89601 17H4.06401L7.32801 10.424H9.32001V17H12.176V0.200012H6.36801C5.37601 0.200012 4.51201 0.344012 3.77601 0.632012C3.04001 0.904013 2.47201 1.28801 2.07201 1.78401C1.65601 2.26401 1.35201 2.80001 1.16001 3.39201C0.968009 3.96801 0.872009 4.60001 0.872009 5.28801ZM9.32001 2.88801V7.73601H6.32001C5.42401 7.73601 4.78401 7.51201 4.40001 7.06401C4.00001 6.60001 3.80001 6.01601 3.80001 5.31201C3.80001 4.64001 3.99201 4.07201 4.37601 3.60801C4.76001 3.12801 5.40801 2.88801 6.32001 2.88801H9.32001Z" fill="#222222"/>
</svg>
