<svg width="60" height="60" viewBox="0 0 60 60" fill="none" xmlns="http://www.w3.org/2000/svg">
<path fill-rule="evenodd" clip-rule="evenodd" d="M0 30C0 13.4315 13.4315 0 30 0C46.5685 0 60 13.4315 60 30C60 46.5685 46.5685 60 30 60C13.4315 60 0 46.5685 0 30Z" fill="white"/>
<path fill-rule="evenodd" clip-rule="evenodd" d="M11.6133 5.02667C14.0544 5.02667 15.7011 6.08111 16.64 6.96222L20.3089 3.38C18.0556 1.28556 15.1233 0 11.6133 0C6.52889 0 2.13778 2.91778 0 7.16444L4.20333 10.4289C5.25778 7.29445 8.17556 5.02667 11.6133 5.02667Z" transform="translate(18.3867 17)" fill="#EA4335"/>
<path fill-rule="evenodd" clip-rule="evenodd" d="M12.48 2.65778C12.48 1.58889 12.3933 0.808889 12.2056 0H0V4.82444H7.16444C7.02 6.02333 6.24 7.82889 4.50667 9.04222L8.60889 12.22C11.0644 9.95222 12.48 6.61556 12.48 2.65778Z" transform="translate(30 27.6311)" fill="#4285F4"/>
<path fill-rule="evenodd" clip-rule="evenodd" d="M5.60444 8.40667C5.33 7.59778 5.17111 6.73111 5.17111 5.83556C5.17111 4.94 5.33 4.07333 5.59 3.26444L1.38667 0C0.505556 1.76222 0 3.74111 0 5.83556C0 7.93 0.505556 9.90889 1.38667 11.6711L5.60444 8.40667Z" transform="translate(17 24.1644)" fill="#FBBC05"/>
<path fill-rule="evenodd" clip-rule="evenodd" d="M11.5989 10.4289C15.1089 10.4289 18.0556 9.27333 20.2078 7.28L16.1056 4.10222C15.0078 4.86778 13.5344 5.40222 11.5989 5.40222C8.16111 5.40222 5.24333 3.13444 4.20333 0L0 3.26444C2.13778 7.51111 6.51444 10.4289 11.5989 10.4289Z" transform="translate(18.4011 32.5711)" fill="#34A853"/>
</svg>
